<?xml version="1.0" encoding="UTF-8" standalone="no"?>
<svg
   xmlns:dc="http://purl.org/dc/elements/1.1/"
   xmlns:cc="http://creativecommons.org/ns#"
   xmlns:rdf="http://www.w3.org/1999/02/22-rdf-syntax-ns#"
   xmlns:svg="http://www.w3.org/2000/svg"
   xmlns="http://www.w3.org/2000/svg"
   viewBox="0 0 549.23999 118.14667"
   height="118.14667"
   width="549.23999"
   xml:space="preserve"
   id="svg2"
   version="1.1"><metadata
     id="metadata8"><rdf:RDF><cc:Work
         rdf:about=""><dc:format>image/svg+xml</dc:format><dc:type
           rdf:resource="http://purl.org/dc/dcmitype/StillImage" /></cc:Work></rdf:RDF></metadata><defs
     id="defs6" /><g
     transform="matrix(1.3333333,0,0,-1.3333333,0,118.14667)"
     id="g10"><g
       transform="scale(0.1)"
       id="g12"><path
         id="path14"
         style="fill:#FFFFFF;fill-opacity:1;fill-rule:nonzero;stroke:none"
         d="M 264.336,228.926 H 0 L 132.168,0 H 396.523 L 264.336,228.926" /><path
         id="path16"
         style="fill:#f5a314;fill-opacity:1;fill-rule:nonzero;stroke:none"
         d="M 643.777,886.125 H 379.434 L 247.258,657.188 h 264.344 l 0.019,0.019 132.156,228.918" /><path
         id="path18"
         style="fill:#40a4c5;fill-opacity:1;fill-rule:nonzero;stroke:none"
         d="M 891.055,457.863 758.879,228.926 891.055,0 1023.21,228.926 h 0.01 L 891.055,457.863" /><path
         id="path20"
         style="fill:#FFFFFF;fill-opacity:.9;fill-rule:nonzero;stroke:none"
         d="M 209.227,591.309 0,228.926 H 264.348 L 473.574,591.309 H 209.227" /><path
         id="path22"
         style="fill:#fbc707;fill-opacity:1;fill-rule:nonzero;stroke:none"
         d="M 852.766,524.172 643.789,886.133 643.777,886.125 511.621,657.207 v -0.019 l 208.977,-361.946 132.168,228.93" /><path
         id="path24"
         style="fill:#91d9e1;fill-opacity:1;fill-rule:nonzero;stroke:none"
         d="m 264.355,228.926 h -0.019 0.019" /><path
         id="path26"
         style="fill:#4a2063;fill-opacity:1;fill-rule:nonzero;stroke:none"
         d="m 264.336,228.926 v 0" /><path
         id="path28"
         style="fill:#91d9e1;fill-opacity:1;fill-rule:nonzero;stroke:none"
         d="m 758.879,228.926 v 0 H 340.41 L 472.578,0 H 626.711 891.055 L 758.879,228.926" /><path
         id="path30"
         style="fill:#FFFFFF;fill-opacity:1;fill-rule:nonzero;stroke:none"
         d="M 1210.83,114.375 V 10.6953 h -14.42 V 114.375 h -35.93 v 12.852 h 86.27 v -12.852 h -35.92" /><path
         id="path32"
         style="fill:#FFFFFF;fill-opacity:1;fill-rule:nonzero;stroke:none"
         d="m 1300.07,114.375 h -13.02 V 68.7305 h 13.49 c 22.74,0 33.55,4.5508 33.55,22.8906 0,19.4529 -11.43,22.7539 -34.02,22.7539 z m 38.89,-103.6797 -27.44,45.4883 c -3.13,-0.168 -7.53,-0.168 -10.98,-0.168 h -13.49 V 10.6953 h -14.42 V 127.227 h 27.44 c 26.98,0 48.62,-5.645 48.62,-35.6059 0,-18.6602 -8.3,-27.7539 -21.81,-32.4609 l 29.18,-48.4649 h -17.1" /><path
         id="path34"
         style="fill:#FFFFFF;fill-opacity:1;fill-rule:nonzero;stroke:none"
         d="M 1380.37,10.6953 V 127.227 h 69.01 v -12.852 h -54.59 V 77.6641 h 51.29 V 64.6484 h -51.29 v -41.25 h 54.59 V 10.6953 h -69.01" /><path
         id="path36"
         style="fill:#FFFFFF;fill-opacity:1;fill-rule:nonzero;stroke:none"
         d="m 1523.1,96.0156 c -2.06,6.2814 -3.46,12.2264 -4.7,19.1324 h -1.57 c -1.42,-6.906 -2.68,-12.851 -4.72,-19.1324 l -11.14,-34.0312 h 33.11 z m 27.45,-85.3203 -12.07,38.1133 h -41.73 l -12.4,-38.1133 h -14.57 l 38.1,116.5317 h 19.92 l 38.11,-116.5317 h -15.36" /><path
         id="path38"
         style="fill:#FFFFFF;fill-opacity:1;fill-rule:nonzero;stroke:none"
         d="M 1632.72,114.375 V 10.6953 h -14.43 V 114.375 h -35.91 v 12.852 h 86.25 v -12.852 h -35.91" /><path
         id="path40"
         style="fill:#FFFFFF;fill-opacity:1;fill-rule:nonzero;stroke:none"
         d="m 1781.08,10.6953 v 75.7578 c 0,8.4688 0.33,13.6449 0.8,21.6449 h -0.33 c -2.66,-6.438 -5.48,-11.9261 -8.3,-17.8832 l -19.6,-41.875 h -17.72 l -19.14,41.875 c -2.67,5.9571 -5.49,11.9142 -8.32,17.8832 h -0.31 c 0.31,-8 0.63,-13.0199 0.63,-21.6449 V 10.6953 h -14.28 V 127.227 h 18.99 l 24.15,-52.5395 c 2.35,-5.0195 4.69,-10.6641 6.89,-15.6836 h 0.32 c 2.2,5.1758 4.87,10.8203 7.21,15.9961 l 24.47,52.227 h 18.82 V 10.6953 h -14.28" /><path
         id="path42"
         style="fill:#FFFFFF;fill-opacity:1;fill-rule:nonzero;stroke:none"
         d="M 1829.87,10.6953 V 127.227 h 69.01 V 114.375 H 1844.3 V 77.6641 h 51.29 V 64.6484 h -51.29 v -41.25 h 54.58 V 10.6953 h -69.01" /><path
         id="path44"
         style="fill:#FFFFFF;fill-opacity:1;fill-rule:nonzero;stroke:none"
         d="m 1992.21,10.6953 -41.11,83.6016 c -2.82,5.8011 -6.42,12.8511 -9.41,19.7581 h -0.3 c 0.47,-7.688 0.77,-16.1527 0.77,-24.3089 V 10.6953 h -13.49 V 127.227 h 20.71 l 40.63,-81.4067 c 2.81,-5.6328 6.57,-13.6406 9.41,-19.914 h 0.3 c -0.62,9.2578 -0.77,18.3515 -0.77,25.5703 v 75.7504 h 13.8 V 10.6953 h -20.54" /><path
         id="path46"
         style="fill:#FFFFFF;fill-opacity:1;fill-rule:nonzero;stroke:none"
         d="M 2088.97,114.375 V 10.6953 h -14.43 V 114.375 h -35.91 v 12.852 h 86.25 v -12.852 h -35.91" /><path
         id="path48"
         style="fill:#FFFFFF;fill-opacity:1;fill-rule:nonzero;stroke:none"
         d="m 2195.18,50.0117 c -7.37,0 -13.35,6.0039 -13.35,13.3477 0,7.4219 5.98,13.4179 13.35,13.4179 7.41,0 13.4,-5.996 13.4,-13.4179 0,-7.3438 -5.99,-13.3477 -13.4,-13.3477" /><path
         id="path50"
         style="fill:#FFFFFF;fill-opacity:1;fill-rule:nonzero;stroke:none"
         d="m 2297.53,114.375 h -13.02 V 68.7305 H 2298 c 22.73,0 33.55,4.5508 33.55,22.8906 0,19.4529 -11.43,22.7539 -34.02,22.7539 z m 38.89,-103.6797 -27.45,45.4883 c -3.12,-0.168 -7.51,-0.168 -10.97,-0.168 h -13.49 V 10.6953 h -14.42 V 127.227 h 27.44 c 26.98,0 48.61,-5.645 48.61,-35.6059 0,-18.6602 -8.3,-27.7539 -21.79,-32.4609 l 29.18,-48.4649 h -17.11" /><path
         id="path52"
         style="fill:#FFFFFF;fill-opacity:1;fill-rule:nonzero;stroke:none"
         d="M 2377.82,10.6953 V 127.227 h 69.03 v -12.852 h -54.6 V 77.6641 h 51.29 V 64.6484 h -51.29 v -41.25 h 54.6 V 10.6953 h -69.03" /><path
         id="path54"
         style="fill:#FFFFFF;fill-opacity:1;fill-rule:nonzero;stroke:none"
         d="m 2507.84,8.49609 c -14.13,0 -29.02,2.19921 -33.24,3.30081 v 11.3008 c 9.24,-1.1055 20.08,-2.0508 33.24,-2.0508 15.84,0 23.85,5.4844 23.85,19.1406 0,9.2578 -3.46,14.5898 -15.85,20.2227 l -19.93,8.9453 c -15.51,6.8945 -23.99,15.3711 -23.99,31.5235 0,19.141 12.55,28.234 38.11,28.234 13.95,0 27.93,-2.043 32.16,-3.136 v -11.454 c -7.06,0.79 -20.4,2.04 -31.69,2.04 -15.35,0 -24,-3.614 -24,-15.684 0,-8.9454 3.3,-13.9532 15.68,-19.4532 l 20.08,-8.7695 c 16.32,-7.2266 24.17,-16.1719 24.17,-32.4688 0,-20.2461 -12.87,-31.69141 -38.59,-31.69141" /><path
         id="path56"
         style="fill:#FFFFFF;fill-opacity:1;fill-rule:nonzero;stroke:none"
         d="M 2576.23,10.6953 V 127.227 h 68.99 v -12.852 h -54.57 V 77.6641 h 51.29 V 64.6484 h -51.29 v -41.25 h 54.57 V 10.6953 h -68.99" /><path
         id="path58"
         style="fill:#FFFFFF;fill-opacity:1;fill-rule:nonzero;stroke:none"
         d="m 2718.96,96.0156 c -2.06,6.2814 -3.46,12.2264 -4.71,19.1324 h -1.56 c -1.43,-6.906 -2.67,-12.851 -4.72,-19.1324 l -11.13,-34.0312 h 33.08 z m 27.44,-85.3203 -12.08,38.1133 h -41.71 l -12.4,-38.1133 h -14.58 l 38.09,116.5317 h 19.93 l 38.12,-116.5317 h -15.37" /><path
         id="path60"
         style="fill:#FFFFFF;fill-opacity:1;fill-rule:nonzero;stroke:none"
         d="m 2814.3,114.375 h -13.02 V 68.7305 h 13.49 c 22.74,0 33.56,4.5508 33.56,22.8906 0,19.4529 -11.44,22.7539 -34.03,22.7539 z m 38.89,-103.6797 -27.44,45.4883 c -3.13,-0.168 -7.53,-0.168 -10.98,-0.168 h -13.49 V 10.6953 h -14.41 V 127.227 h 27.43 c 26.99,0 48.62,-5.645 48.62,-35.6059 0,-18.6602 -8.3,-27.7539 -21.81,-32.4609 l 29.19,-48.4649 h -17.11" /><path
         id="path62"
         style="fill:#FFFFFF;fill-opacity:1;fill-rule:nonzero;stroke:none"
         d="m 2936.94,8.49609 c -26.66,0 -47.04,9.88281 -47.04,50.82031 v 19.2891 c 0,40.9335 20.38,50.5075 47.04,50.5075 10.68,0 22.28,-1.886 27,-2.668 V 114.68 c -7.23,0.633 -18.37,1.57 -27,1.57 -21.95,0 -32.61,-8.945 -32.61,-37.6445 V 59.3164 c 0,-28.7031 10.66,-37.793 32.61,-37.793 8.63,0 19.77,0.7813 27,1.4063 V 11.1602 c -4.72,-0.7696 -16.32,-2.66411 -27,-2.66411" /><path
         id="path64"
         style="fill:#FFFFFF;fill-opacity:1;fill-rule:nonzero;stroke:none"
         d="m 3062.59,10.6953 v 55.0469 h -58.35 V 10.6953 h -14.43 V 127.227 h 14.43 V 78.7695 h 58.35 V 127.227 H 3077 V 10.6953 h -14.41" /><path
         id="path66"
         style="fill:#FFFFFF;fill-opacity:1;fill-rule:nonzero;stroke:none"
         d="m 3155.92,50.0117 c -7.35,0 -13.33,6.0039 -13.33,13.3477 0,7.4219 5.98,13.4179 13.33,13.4179 7.41,0 13.43,-5.996 13.43,-13.4179 0,-7.3438 -6.02,-13.3477 -13.43,-13.3477" /><path
         id="path68"
         style="fill:#FFFFFF;fill-opacity:1;fill-rule:nonzero;stroke:none"
         d="M 3230.83,10.6953 V 127.227 h 69.01 v -12.852 h -54.59 V 77.6641 h 51.28 V 64.6484 h -51.28 v -41.25 h 54.59 V 10.6953 h -69.01" /><path
         id="path70"
         style="fill:#FFFFFF;fill-opacity:1;fill-rule:nonzero;stroke:none"
         d="m 3398.82,78.6055 c 0,26.5115 -12.72,35.7695 -37.81,35.7695 h -16.94 V 23.3984 h 16.94 c 25.09,0 37.81,9.7266 37.81,36.2305 z m -36.55,-67.9102 h -32.62 V 127.227 h 32.62 c 36.23,0 51.12,-19.129 51.12,-48.6215 V 59.6289 c 0,-29.6484 -13.63,-48.9336 -51.12,-48.9336" /><path
         id="path72"
         style="fill:#FFFFFF;fill-opacity:1;fill-rule:nonzero;stroke:none"
         d="m 3484.75,8.49609 c -28.08,0 -42.35,16.94531 -42.35,50.66411 v 68.0668 h 14.45 V 60.7227 c 0,-28.2227 6.56,-39.1993 27.9,-39.1993 21.18,0 27.93,11.125 27.93,39.1993 v 66.5043 h 14.26 V 59.1602 c 0,-33.7188 -14.26,-50.66411 -42.19,-50.66411" /><path
         id="path74"
         style="fill:#FFFFFF;fill-opacity:1;fill-rule:nonzero;stroke:none"
         d="m 3603,8.49609 c -26.66,0 -47.04,9.88281 -47.04,50.82031 v 19.2891 c 0,40.9335 20.38,50.5075 47.04,50.5075 10.67,0 22.27,-1.886 26.99,-2.668 V 114.68 c -7.23,0.633 -18.37,1.57 -26.99,1.57 -21.96,0 -32.62,-8.945 -32.62,-37.6445 V 59.3164 c 0,-28.7031 10.66,-37.793 32.62,-37.793 8.62,0 19.76,0.7813 26.99,1.4063 V 11.1602 C 3625.27,10.3906 3613.67,8.49609 3603,8.49609" /><path
         id="path76"
         style="fill:#FFFFFF;fill-opacity:1;fill-rule:nonzero;stroke:none"
         d="m 3699.78,96.0156 c -2.06,6.2814 -3.46,12.2264 -4.7,19.1324 h -1.57 c -1.42,-6.906 -2.68,-12.851 -4.72,-19.1324 l -11.14,-34.0312 h 33.11 z m 27.45,-85.3203 -12.07,38.1133 h -41.73 l -12.4,-38.1133 h -14.57 l 38.1,116.5317 h 19.92 l 38.11,-116.5317 h -15.36" /><path
         id="path78"
         style="fill:#FFFFFF;fill-opacity:1;fill-rule:nonzero;stroke:none"
         d="M 3809.4,114.375 V 10.6953 h -14.41 V 114.375 h -35.93 v 12.852 h 86.27 v -12.852 h -35.93" /><path
         id="path80"
         style="fill:#FFFFFF;fill-opacity:1;fill-rule:nonzero;stroke:none"
         d="M 3871.21,10.6953 V 127.227 h 14.42 V 10.6953 h -14.42" /><path
         id="path82"
         style="fill:#FFFFFF;fill-opacity:1;fill-rule:nonzero;stroke:none"
         d="m 3990.87,77.1953 c 0,28.5467 -12.54,39.0547 -30.43,39.0547 -17.88,0 -30.43,-10.508 -30.43,-39.0547 V 60.5742 c 0,-28.5429 12.55,-39.207 30.43,-39.207 17.89,0 30.43,10.6641 30.43,39.207 z M 3960.44,8.49609 c -29.02,0 -45,18.82811 -45,52.07811 v 16.6211 c 0,33.2537 15.98,51.9177 45,51.9177 29.02,0 45.01,-18.664 45.01,-51.9177 V 60.5742 c 0,-33.25 -15.99,-52.07811 -45.01,-52.07811" /><path
         id="path84"
         style="fill:#FFFFFF;fill-opacity:1;fill-rule:nonzero;stroke:none"
         d="m 4098.78,10.6953 -41.1,83.6016 c -2.83,5.8011 -6.43,12.8511 -9.42,19.7581 h -0.3 c 0.48,-7.688 0.78,-16.1527 0.78,-24.3089 V 10.6953 h -13.49 V 127.227 h 20.72 l 40.61,-81.4067 c 2.82,-5.6328 6.57,-13.6406 9.42,-19.914 h 0.3 c -0.63,9.2578 -0.77,18.3515 -0.77,25.5703 v 75.7504 h 13.8 V 10.6953 h -20.55" /><path
         id="path86"
         style="fill:#FFFFFF;fill-opacity:1;fill-rule:nonzero;stroke:none"
         d="M 1267.14,626.082 V 328.645 h -66.41 v 297.437 h -105.32 v 55.039 h 277.05 v -55.039 h -105.32" /><path
         id="path88"
         style="fill:#FFFFFF;fill-opacity:1;fill-rule:nonzero;stroke:none"
         d="m 1583.1,328.645 v 21.343 c -31.78,-17.078 -61.67,-28.465 -92.5,-28.465 -69.74,0 -80.18,49.336 -80.18,104.375 v 169.825 h 62.15 V 425.898 c 0,-37.957 7.11,-51.707 38.43,-51.707 18.02,0 41.27,7.11 69.73,18.016 v 203.516 h 62.62 V 328.645 h -60.25" /><path
         id="path90"
         style="fill:#FFFFFF;fill-opacity:1;fill-rule:nonzero;stroke:none"
         d="M 1765.75,528.84 V 328.645 h -62.15 v 267.078 h 59.3 v -21.817 c 25.15,22.293 57.88,28.465 91.08,28.465 v -57.398 c -32.25,0 -67.83,-6.645 -88.23,-16.133" /><path
         id="path92"
         style="fill:#FFFFFF;fill-opacity:1;fill-rule:nonzero;stroke:none"
         d="m 2057.03,328.645 v 169.351 c 0,38.43 -6.64,51.711 -37.48,51.711 -18.02,0 -41.74,-6.641 -70.2,-18.027 V 328.645 h -62.15 v 267.078 h 59.77 v -21.348 c 28.94,16.613 57.88,27.996 87.77,27.996 75.43,0 85.39,-43.648 85.39,-104.375 V 328.645 h -63.1" /><path
         id="path94"
         style="fill:#FFFFFF;fill-opacity:1;fill-rule:nonzero;stroke:none"
         d="m 2180.86,328.645 v 267.078 h 63.09 V 328.645 Z m -0.48,308.359 v 60.242 h 64.52 v -60.242 h -64.52" /><path
         id="path96"
         style="fill:#FFFFFF;fill-opacity:1;fill-rule:nonzero;stroke:none"
         d="m 2475.93,328.645 v 169.351 c 0,38.43 -6.64,51.711 -37.47,51.711 -18.03,0 -41.75,-6.641 -70.22,-18.027 V 328.645 h -62.15 v 267.078 h 59.78 v -21.348 c 28.93,16.613 57.88,27.996 87.76,27.996 75.43,0 85.39,-43.648 85.39,-104.375 V 328.645 h -63.09" /><path
         id="path98"
         style="fill:#FFFFFF;fill-opacity:1;fill-rule:nonzero;stroke:none"
         d="m 2758.67,547.344 c -5.21,0.945 -23.72,2.844 -43.64,2.844 -51.23,0 -64.52,-22.778 -64.52,-72.114 V 448.66 c 0,-53.601 17.08,-71.148 63.57,-71.148 16.6,0 38.43,1.89 44.59,3.316 z m -51.23,-322.598 c -46.01,0 -95.35,8.543 -104.36,10.442 v 42.695 c 29.88,-1.895 67.83,-4.27 100.56,-4.27 49.34,0 55.03,14.707 55.03,45.071 v 10.437 c -8.53,-1.426 -30.83,-3.801 -47.91,-3.801 -78.28,0 -122.87,34.164 -122.87,123.34 v 29.895 c 0,84.441 38.43,123.816 130.94,123.816 35.1,0 73.52,-3.316 102.46,-6.648 V 318.684 c 0,-57.883 -22.76,-93.938 -113.85,-93.938" /><path
         id="path100"
         style="fill:#FFFFFF;fill-opacity:1;fill-rule:nonzero;stroke:none"
         d="m 3157.18,572.957 c -0.47,54.555 -38.9,54.555 -115.28,54.555 h -9.49 V 511.758 c 12.34,-0.469 25.15,-0.469 37.96,-0.469 57.87,0 86.81,9.961 86.81,56.445 z m -85.86,-117.652 c -12.81,0 -25.15,0 -38.91,0.476 V 328.645 h -64.51 v 352.476 c 33.68,1.899 64.99,2.367 99.15,2.367 86.34,0 154.65,-16.601 155.13,-110.531 v -5.223 c 0,-94.871 -68.79,-112.429 -150.86,-112.429" /><path
         id="path102"
         style="fill:#FFFFFF;fill-opacity:1;fill-rule:nonzero;stroke:none"
         d="m 3431.86,478.555 c 0,51.23 -17.55,70.207 -58.35,70.207 -40.33,0 -58.35,-18.977 -58.35,-70.207 V 445.82 c 0,-51.242 17.55,-70.683 58.35,-70.683 40.8,0 58.35,19.441 58.35,70.683 z m -58.35,-157.032 c -77.8,0 -120.5,39.856 -120.5,124.297 v 32.735 c 0,83.965 42.7,123.816 120.5,123.816 77.8,0 120.49,-39.851 120.49,-123.816 V 445.82 c 0,-84.441 -42.69,-124.297 -120.49,-124.297" /><path
         id="path104"
         style="fill:#FFFFFF;fill-opacity:1;fill-rule:nonzero;stroke:none"
         d="m 3545.72,328.645 v 267.078 h 63.09 V 328.645 Z m -0.48,308.359 v 60.242 h 64.53 v -60.242 h -64.53" /><path
         id="path106"
         style="fill:#FFFFFF;fill-opacity:1;fill-rule:nonzero;stroke:none"
         d="m 3840.79,328.645 v 169.351 c 0,38.43 -6.64,51.711 -37.47,51.711 -18.03,0 -41.75,-6.641 -70.21,-18.027 V 328.645 h -62.15 v 267.078 h 59.77 v -21.348 c 28.94,16.613 57.88,27.996 87.77,27.996 75.43,0 85.39,-43.648 85.39,-104.375 V 328.645 h -63.1" /><path
         id="path108"
         style="fill:#FFFFFF;fill-opacity:1;fill-rule:nonzero;stroke:none"
         d="m 4062.34,321.523 c -52.66,0 -73.53,20.879 -73.53,76.856 v 147.062 l -49.82,4.266 v 46.016 h 49.82 v 67.843 h 62.62 v -67.843 h 65 v -50.282 h -65 V 399.324 c 0,-24.668 1.9,-29.414 24.66,-29.414 13.76,0 32.74,0.949 40.34,1.906 v -42.695 c -7.12,-1.902 -30.37,-7.598 -54.09,-7.598" /></g></g></svg>